<?xml version="1.0" encoding="UTF-8"?>
<svg id="Capa_1" data-name="Capa 1" xmlns="http://www.w3.org/2000/svg" xmlns:xlink="http://www.w3.org/1999/xlink" viewBox="0 0 1880.04 345.05">
  <defs>
    <style>
      .cls-1 {
        fill: url(#gradient4-6);
      }

      .cls-2 {
        fill: url(#gradient4-2);
      }

      .cls-3 {
        fill: url(#gradient4-5);
      }

      .cls-4 {
        fill: url(#gradient4-4);
      }

      .cls-5 {
        fill: url(#gradient4-8);
      }

      .cls-6 {
        fill: url(#gradient4-9);
      }

      .cls-7 {
        fill: url(#gradient4);
      }

      .cls-8 {
        fill: #494963;
      }

      .cls-9 {
        fill: url(#gradient4-10);
      }

      .cls-10 {
        fill: url(#gradient4-3);
      }

      .cls-11 {
        fill: url(#gradient4-7);
      }
    </style>
    <linearGradient id="gradient4" x1="18.64" y1="260.93" x2="1065.28" y2="260.93" gradientUnits="userSpaceOnUse">
      <stop offset="0" stop-color="#ffcb02"/>
      <stop offset=".33" stop-color="#ff7402"/>
      <stop offset=".66" stop-color="#e42153"/>
      <stop offset="1" stop-color="#3c3ae5"/>
    </linearGradient>
    <linearGradient id="gradient4-2" data-name="gradient4" x1="18.64" y1="278.22" x2="1065.28" y2="278.22" xlink:href="#gradient4"/>
    <linearGradient id="gradient4-3" data-name="gradient4" x1="18.64" y1="277.3" x2="1065.28" y2="277.3" xlink:href="#gradient4"/>
    <linearGradient id="gradient4-4" data-name="gradient4" x1="18.64" y1="277.3" x2="1065.28" y2="277.3" xlink:href="#gradient4"/>
    <linearGradient id="gradient4-5" data-name="gradient4" x1="18.64" y1="278.13" x2="1065.28" y2="278.13" xlink:href="#gradient4"/>
    <linearGradient id="gradient4-6" data-name="gradient4" x1="18.64" y1="266.56" x2="1065.28" y2="266.56" xlink:href="#gradient4"/>
    <linearGradient id="gradient4-7" data-name="gradient4" x1="18.64" y1="255.9" x2="1065.28" y2="255.9" xlink:href="#gradient4"/>
    <linearGradient id="gradient4-8" data-name="gradient4" x1="18.64" y1="277.94" x2="1065.28" y2="277.94" xlink:href="#gradient4"/>
    <linearGradient id="gradient4-9" data-name="gradient4" x1="18.64" y1="278.13" x2="1065.28" y2="278.13" xlink:href="#gradient4"/>
    <linearGradient id="gradient4-10" data-name="gradient4" x1="18.64" y1="278.22" x2="1065.28" y2="278.22" xlink:href="#gradient4"/>
  </defs>
  <g>
    <path class="cls-8" d="M18.64,160.48V24.22h58.71c10.12,0,18.98,2,26.57,5.99,7.59,3.99,13.5,9.62,17.74,16.87,4.24,7.26,6.36,15.73,6.36,25.42s-2.16,18.18-6.49,25.28c-4.33,7.1-10.4,12.59-18.2,16.46-7.8,3.87-16.89,5.81-27.25,5.81h-20.48v40.42H18.64ZM55.59,91.35h12.98c6.52,0,11.63-1.71,15.32-5.12,3.69-3.41,5.53-7.99,5.53-13.72s-1.84-10.5-5.53-13.76c-3.69-3.26-8.79-4.89-15.32-4.89h-12.98v37.49Z"/>
    <path class="cls-8" d="M142.1,160.48V58.24h35.67v19.57h1.09c1.83-7.25,4.77-12.54,8.83-15.87,4.05-3.32,8.79-4.98,14.22-4.98,3.11,0,6.22.49,9.33,1.46v31.28c-1.83-.67-4.07-1.14-6.72-1.42-2.65-.28-4.92-.41-6.81-.41-5.43,0-9.92,1.77-13.49,5.3-3.57,3.54-5.35,8.23-5.35,14.09v53.22h-36.76Z"/>
    <path class="cls-8" d="M247.08,162.13c-9.82,0-17.82-2.44-24.01-7.31-6.19-4.88-9.28-12.38-9.28-22.5,0-7.5,1.66-13.53,4.99-18.11,3.32-4.57,7.82-8,13.49-10.29,5.67-2.28,12.01-3.67,19.02-4.16,8.54-.61,14.6-1.51,18.2-2.7,3.6-1.19,5.4-3.28,5.4-6.27v-.37c0-2.62-1.04-4.65-3.11-6.08-2.07-1.43-4.88-2.15-8.41-2.15s-6.45.75-8.92,2.24c-2.47,1.5-4.01,3.8-4.62,6.91l-33.11-3.29c.98-5.73,3.35-10.94,7.13-15.64,3.78-4.69,9.01-8.44,15.68-11.25,6.68-2.8,14.8-4.2,24.37-4.2s18.12,1.48,25.28,4.43c7.17,2.96,12.7,6.97,16.6,12.03,3.9,5.06,5.85,10.73,5.85,17.01v70.05h-34.39v-14.45h-.73c-3.11,5.73-7.13,9.85-12.07,12.35-4.94,2.5-10.73,3.75-17.37,3.75ZM258.97,138.9c4.14,0,7.89-1.28,11.25-3.84,3.35-2.56,5.03-6.16,5.03-10.79v-8.41c-3.78,1.46-8.66,2.69-14.63,3.66-4.27.67-7.38,1.95-9.33,3.84-1.95,1.89-2.93,4.15-2.93,6.77,0,2.87.99,5.04,2.97,6.54,1.98,1.5,4.53,2.24,7.64,2.24ZM253.3,45.62l12.62-29.81h31.46l-19.94,29.81h-24.14Z"/>
    <path class="cls-8" d="M379.5,162.31c-11.1,0-20.59-2.21-28.49-6.63-7.89-4.42-13.93-10.58-18.11-18.47-4.18-7.89-6.27-17.09-6.27-27.57s2.09-19.68,6.27-27.57c4.18-7.89,10.21-14.05,18.11-18.48,7.89-4.42,17.39-6.63,28.49-6.63,14.08,0,25.47,3.52,34.15,10.56s13.61,16.48,14.77,28.3l-33.74,5.03c-1.77-10.98-6.65-16.46-14.63-16.46-4.82,0-8.67,2.07-11.57,6.22s-4.34,10.42-4.34,18.84,1.45,14.68,4.34,18.98c2.9,4.3,6.75,6.45,11.57,6.45,8.17,0,13.05-5.67,14.63-17.01l33.74,4.94c-1.22,12.13-6.13,21.75-14.72,28.85-8.59,7.1-20,10.65-34.2,10.65Z"/>
    <path class="cls-8" d="M503.05,58.24v26.7h-17.56v42.71c0,4.27,2.32,6.4,6.95,6.4,1.09,0,2.7-.14,4.8-.41,2.1-.28,3.49-.53,4.16-.78l4.39,26.25c-4.2,1.16-8.17,1.93-11.89,2.33-3.72.4-7.22.6-10.52.6-23.11,0-34.66-10.33-34.66-31v-46.09h-12.98v-26.7h12.98v-24.33h36.76v24.33h17.56Z"/>
    <path class="cls-8" d="M518.05,160.48V58.24h36.76v102.24h-36.76ZM536.34,47.82c-5,0-9.27-1.65-12.8-4.94-3.54-3.29-5.3-7.25-5.3-11.89s1.77-8.67,5.3-11.93c3.53-3.26,7.8-4.89,12.8-4.89s9.27,1.63,12.8,4.89c3.54,3.26,5.31,7.24,5.31,11.93s-1.77,8.59-5.31,11.89c-3.53,3.29-7.8,4.94-12.8,4.94Z"/>
    <path class="cls-8" d="M622.67,162.31c-11.1,0-20.59-2.21-28.49-6.63-7.89-4.42-13.93-10.58-18.11-18.47-4.18-7.89-6.27-17.09-6.27-27.57s2.09-19.68,6.27-27.57,10.21-14.05,18.11-18.48c7.89-4.42,17.39-6.63,28.49-6.63,14.08,0,25.47,3.52,34.15,10.56,8.69,7.04,13.61,16.48,14.77,28.3l-33.74,5.03c-1.77-10.98-6.65-16.46-14.63-16.46-4.82,0-8.67,2.07-11.57,6.22-2.9,4.15-4.34,10.42-4.34,18.84s1.45,14.68,4.34,18.98c2.9,4.3,6.75,6.45,11.57,6.45,8.17,0,13.05-5.67,14.63-17.01l33.74,4.94c-1.22,12.13-6.13,21.75-14.72,28.85-8.59,7.1-20,10.65-34.2,10.65Z"/>
    <path class="cls-8" d="M716.77,162.13c-9.82,0-17.82-2.44-24.01-7.31-6.19-4.88-9.28-12.38-9.28-22.5,0-7.5,1.66-13.53,4.99-18.11,3.32-4.57,7.82-8,13.49-10.29,5.67-2.28,12.01-3.67,19.02-4.16,8.54-.61,14.6-1.51,18.2-2.7,3.6-1.19,5.4-3.28,5.4-6.27v-.37c0-2.62-1.04-4.65-3.11-6.08-2.07-1.43-4.88-2.15-8.41-2.15s-6.45.75-8.92,2.24c-2.47,1.5-4.01,3.8-4.62,6.91l-33.11-3.29c.98-5.73,3.35-10.94,7.13-15.64,3.78-4.69,9.01-8.44,15.68-11.25,6.68-2.8,14.8-4.2,24.37-4.2s18.12,1.48,25.28,4.43c7.17,2.96,12.7,6.97,16.6,12.03,3.9,5.06,5.85,10.73,5.85,17.01v70.05h-34.39v-14.45h-.73c-3.11,5.73-7.13,9.85-12.07,12.35-4.94,2.5-10.73,3.75-17.37,3.75ZM728.66,138.9c4.14,0,7.89-1.28,11.25-3.84,3.35-2.56,5.03-6.16,5.03-10.79v-8.41c-3.78,1.46-8.66,2.69-14.63,3.66-4.27.67-7.38,1.95-9.33,3.84-1.95,1.89-2.93,4.15-2.93,6.77,0,2.87.99,5.04,2.97,6.54,1.98,1.5,4.53,2.24,7.64,2.24Z"/>
    <path class="cls-8" d="M845.62,162.31c-13.9,0-25.3-2.9-34.2-8.69-8.9-5.79-14.23-13.72-16-23.78l34.02-4.94c1.22,4.02,3.2,7.12,5.94,9.28,2.74,2.16,6.71,3.25,11.89,3.25,7.62,0,11.43-2.13,11.43-6.4,0-3.6-3.9-6.09-11.7-7.5l-18.11-3.29c-20.73-3.72-31.09-13.72-31.09-30,0-10.67,4.2-18.88,12.62-24.65,8.42-5.76,19.94-8.64,34.57-8.64,13.53,0,24.48,2.6,32.83,7.82,8.35,5.21,13.32,12.45,14.91,21.72l-32.37,4.66c-.79-3.35-2.53-5.81-5.21-7.36-2.69-1.55-5.82-2.33-9.42-2.33-3.17,0-5.85.56-8.05,1.69-2.2,1.13-3.29,2.76-3.29,4.89,0,1.52.65,2.96,1.96,4.3,1.31,1.34,3.89,2.35,7.73,3.02l20.85,3.66c20.73,3.66,31.09,12.86,31.09,27.62,0,7.32-2.18,13.64-6.54,18.98-4.36,5.34-10.32,9.45-17.88,12.35-7.56,2.89-16.22,4.34-25.97,4.34Z"/>
  </g>
  <g>
    <path class="cls-8" d="M952.02,160.48V24.22h36.95v106.45h55.05v29.81h-92Z"/>
    <path class="cls-8" d="M1087,162.13c-9.82,0-17.82-2.44-24.01-7.31-6.19-4.88-9.28-12.38-9.28-22.5,0-7.5,1.66-13.53,4.99-18.11,3.32-4.57,7.82-8,13.49-10.29,5.67-2.28,12.01-3.67,19.02-4.16,8.54-.61,14.6-1.51,18.2-2.7,3.6-1.19,5.4-3.28,5.4-6.27v-.37c0-2.62-1.04-4.65-3.11-6.08-2.07-1.43-4.88-2.15-8.41-2.15s-6.45.75-8.92,2.24c-2.47,1.5-4.01,3.8-4.62,6.91l-33.11-3.29c.98-5.73,3.35-10.94,7.13-15.64,3.78-4.69,9.01-8.44,15.68-11.25,6.68-2.8,14.8-4.2,24.37-4.2s18.12,1.48,25.28,4.43c7.17,2.96,12.7,6.97,16.6,12.03,3.9,5.06,5.85,10.73,5.85,17.01v70.05h-34.39v-14.45h-.73c-3.11,5.73-7.13,9.85-12.07,12.35-4.94,2.5-10.73,3.75-17.37,3.75ZM1098.89,138.9c4.14,0,7.89-1.28,11.25-3.84,3.35-2.56,5.03-6.16,5.03-10.79v-8.41c-3.78,1.46-8.66,2.69-14.63,3.66-4.27.67-7.38,1.95-9.33,3.84-1.95,1.89-2.93,4.15-2.93,6.77,0,2.87.99,5.04,2.97,6.54,1.98,1.5,4.53,2.24,7.64,2.24Z"/>
    <path class="cls-8" d="M1235.88,161.76c-7.2,0-13.19-1.72-17.97-5.17-4.79-3.44-8.25-7.76-10.38-12.94h-.91v16.83h-36.4V24.22h36.76v51.94h.55c1.95-5.24,5.33-9.75,10.15-13.53s11-5.67,18.57-5.67c6.77,0,13.18,1.8,19.25,5.39,6.06,3.6,11.02,9.25,14.86,16.97,3.84,7.71,5.76,17.76,5.76,30.13s-1.83,21.52-5.49,29.26c-3.66,7.75-8.54,13.52-14.63,17.33-6.1,3.81-12.8,5.71-20.12,5.71ZM1222.34,133.6c5.06,0,8.98-2.13,11.75-6.4,2.78-4.27,4.16-10.18,4.16-17.74s-1.39-13.58-4.16-17.88c-2.77-4.3-6.69-6.45-11.75-6.45s-8.96,2.15-11.89,6.45c-2.93,4.3-4.39,10.26-4.39,17.88s1.46,13.25,4.39,17.6c2.93,4.36,6.89,6.54,11.89,6.54Z"/>
    <path class="cls-8" d="M1340.41,162.31c-11.1,0-20.61-2.21-28.53-6.63-7.92-4.42-13.98-10.58-18.15-18.47-4.18-7.89-6.27-17.09-6.27-27.57s2.09-19.68,6.27-27.57c4.18-7.89,10.23-14.05,18.15-18.48,7.93-4.42,17.44-6.63,28.53-6.63s20.57,2.21,28.44,6.63c7.87,4.42,13.88,10.58,18.06,18.48,4.18,7.89,6.27,17.09,6.27,27.57s-2.09,19.68-6.27,27.57c-4.18,7.89-10.19,14.05-18.06,18.47-7.87,4.42-17.34,6.63-28.44,6.63ZM1340.41,134.88c4.76,0,8.49-2.24,11.2-6.72,2.71-4.48,4.07-10.71,4.07-18.7s-1.36-14.23-4.07-18.56c-2.71-4.33-6.45-6.5-11.2-6.5s-8.6,2.17-11.34,6.5c-2.74,4.33-4.11,10.52-4.11,18.56s1.37,14.22,4.11,18.7c2.74,4.48,6.52,6.72,11.34,6.72Z"/>
    <path class="cls-8" d="M1408.17,160.48V58.24h35.67v19.57h1.09c1.83-7.25,4.77-12.54,8.83-15.87,4.05-3.32,8.79-4.98,14.22-4.98,3.11,0,6.22.49,9.33,1.46v31.28c-1.83-.67-4.07-1.14-6.72-1.42-2.65-.28-4.92-.41-6.81-.41-5.43,0-9.92,1.77-13.49,5.3-3.57,3.54-5.35,8.23-5.35,14.09v53.22h-36.76Z"/>
    <path class="cls-8" d="M1513.16,162.13c-9.82,0-17.82-2.44-24.01-7.31-6.19-4.88-9.28-12.38-9.28-22.5,0-7.5,1.66-13.53,4.99-18.11,3.32-4.57,7.82-8,13.49-10.29,5.67-2.28,12.01-3.67,19.02-4.16,8.54-.61,14.6-1.51,18.2-2.7,3.6-1.19,5.4-3.28,5.4-6.27v-.37c0-2.62-1.04-4.65-3.11-6.08-2.07-1.43-4.88-2.15-8.41-2.15s-6.45.75-8.92,2.24c-2.47,1.5-4.01,3.8-4.62,6.91l-33.11-3.29c.98-5.73,3.35-10.94,7.13-15.64,3.78-4.69,9.01-8.44,15.68-11.25,6.68-2.8,14.8-4.2,24.37-4.2s18.12,1.48,25.28,4.43c7.17,2.96,12.7,6.97,16.6,12.03,3.9,5.06,5.85,10.73,5.85,17.01v70.05h-34.39v-14.45h-.73c-3.11,5.73-7.13,9.85-12.07,12.35-4.94,2.5-10.73,3.75-17.37,3.75ZM1525.04,138.9c4.14,0,7.89-1.28,11.25-3.84,3.35-2.56,5.03-6.16,5.03-10.79v-8.41c-3.78,1.46-8.66,2.69-14.63,3.66-4.27.67-7.38,1.95-9.33,3.84-1.95,1.89-2.93,4.15-2.93,6.77,0,2.87.99,5.04,2.97,6.54,1.98,1.5,4.53,2.24,7.64,2.24Z"/>
    <path class="cls-8" d="M1633.14,24.22v136.26h-36.76V24.22h36.76Z"/>
    <path class="cls-8" d="M1700.81,162.31c-16.4,0-29.28-4.65-38.64-13.95-9.36-9.3-14.04-22.21-14.04-38.73,0-10.55,2.12-19.77,6.36-27.67,4.24-7.89,10.23-14.04,17.97-18.43s16.89-6.58,27.44-6.58,19.27,2.12,26.89,6.36c7.62,4.24,13.52,10.27,17.7,18.11,4.17,7.83,6.26,17.18,6.26,28.03v8.41h-66.58c.24,6.34,1.94,11.04,5.08,14.09,3.14,3.05,7.24,4.57,12.3,4.57,3.78,0,7.01-.78,9.69-2.33s4.57-3.73,5.67-6.54l32.37,4.76c-2.62,9.21-8.1,16.49-16.42,21.85-8.32,5.37-19.01,8.05-32.05,8.05ZM1684.44,97.75h31.64c-1.16-10-6.43-15-15.82-15s-14.67,5-15.82,15Z"/>
    <path class="cls-8" d="M1811.01,162.31c-13.9,0-25.3-2.9-34.2-8.69-8.9-5.79-14.23-13.72-16-23.78l34.02-4.94c1.22,4.02,3.2,7.12,5.94,9.28,2.74,2.16,6.71,3.25,11.89,3.25,7.62,0,11.43-2.13,11.43-6.4,0-3.6-3.9-6.09-11.7-7.5l-18.11-3.29c-20.73-3.72-31.09-13.72-31.09-30,0-10.67,4.2-18.88,12.62-24.65,8.42-5.76,19.94-8.64,34.57-8.64,13.53,0,24.48,2.6,32.83,7.82,8.35,5.21,13.32,12.45,14.91,21.72l-32.37,4.66c-.79-3.35-2.53-5.81-5.21-7.36-2.69-1.55-5.82-2.33-9.42-2.33-3.17,0-5.85.56-8.05,1.69-2.2,1.13-3.29,2.76-3.29,4.89,0,1.52.65,2.96,1.96,4.3,1.31,1.34,3.89,2.35,7.73,3.02l20.85,3.66c20.73,3.66,31.09,12.86,31.09,27.62,0,7.32-2.18,13.64-6.54,18.98-4.36,5.34-10.32,9.45-17.88,12.35-7.56,2.89-16.22,4.34-25.97,4.34Z"/>
  </g>
  <g>
    <path class="cls-7" d="M18.64,329.06v-136.26h95.84v29.81h-58.89v30.73h53.04v29.08h-53.04v46.64H18.64Z"/>
    <path class="cls-2" d="M174.2,330.89c-11.1,0-20.61-2.21-28.53-6.63-7.92-4.42-13.98-10.58-18.15-18.47-4.18-7.89-6.27-17.09-6.27-27.57s2.09-19.68,6.27-27.57c4.18-7.89,10.23-14.05,18.15-18.48,7.93-4.42,17.44-6.63,28.53-6.63s20.57,2.21,28.44,6.63c7.87,4.42,13.88,10.58,18.06,18.48,4.18,7.89,6.27,17.09,6.27,27.57s-2.09,19.68-6.27,27.57c-4.18,7.89-10.19,14.05-18.06,18.47-7.87,4.42-17.34,6.63-28.44,6.63ZM174.2,303.46c4.76,0,8.49-2.24,11.2-6.72,2.71-4.48,4.07-10.71,4.07-18.7s-1.36-14.23-4.07-18.56c-2.71-4.33-6.45-6.5-11.2-6.5s-8.6,2.17-11.34,6.5c-2.74,4.33-4.11,10.52-4.11,18.56s1.37,14.22,4.11,18.7c2.74,4.48,6.52,6.72,11.34,6.72Z"/>
    <path class="cls-10" d="M241.96,329.06v-102.24h35.67v19.57h1.09c1.83-7.25,4.77-12.54,8.83-15.87,4.05-3.32,8.79-4.98,14.22-4.98,3.11,0,6.22.49,9.33,1.46v31.28c-1.83-.67-4.07-1.14-6.72-1.42-2.65-.28-4.92-.41-6.81-.41-5.43,0-9.92,1.77-13.49,5.3-3.57,3.54-5.35,8.23-5.35,14.09v53.22h-36.76Z"/>
    <path class="cls-4" d="M323.17,329.06v-102.24h33.56l1.83,20.94c2.93-7.99,7.06-13.68,12.39-17.1,5.34-3.41,11.11-5.12,17.33-5.12s11.8,1.86,16,5.58c4.2,3.72,7.71,10.09,10.52,19.11,3.23-9.02,7.91-15.39,14.04-19.11,6.13-3.72,12.61-5.58,19.43-5.58,9.75,0,17.68,3.14,23.78,9.42,6.1,6.28,9.15,14.67,9.15,25.15v68.95h-36.76v-59.62c0-4.45-1.13-7.94-3.38-10.47-2.26-2.53-5.27-3.79-9.05-3.79s-6.77,1.27-8.96,3.79c-2.2,2.53-3.29,6.02-3.29,10.47v59.62h-35.12v-59.62c0-4.45-1.13-7.94-3.38-10.47-2.26-2.53-5.27-3.79-9.05-3.79s-6.85,1.27-9.01,3.79c-2.17,2.53-3.25,6.02-3.25,10.47v59.62h-36.76Z"/>
    <path class="cls-3" d="M528.38,330.71c-9.82,0-17.82-2.44-24.01-7.31-6.19-4.88-9.28-12.38-9.28-22.5,0-7.5,1.66-13.53,4.99-18.11,3.32-4.57,7.82-8,13.49-10.29,5.67-2.28,12.01-3.67,19.02-4.16,8.54-.61,14.6-1.51,18.2-2.7,3.6-1.19,5.4-3.28,5.4-6.27v-.37c0-2.62-1.04-4.65-3.11-6.08-2.07-1.43-4.88-2.15-8.41-2.15s-6.45.75-8.92,2.24c-2.47,1.5-4.01,3.8-4.62,6.91l-33.11-3.29c.98-5.73,3.35-10.94,7.13-15.64,3.78-4.69,9.01-8.44,15.68-11.25,6.68-2.8,14.8-4.2,24.37-4.2s18.12,1.48,25.28,4.43c7.17,2.96,12.7,6.97,16.6,12.03,3.9,5.06,5.85,10.73,5.85,17.01v70.05h-34.39v-14.45h-.73c-3.11,5.73-7.13,9.85-12.07,12.35-4.94,2.5-10.73,3.75-17.37,3.75ZM540.27,307.48c4.14,0,7.89-1.28,11.25-3.84,3.35-2.56,5.03-6.16,5.03-10.79v-8.41c-3.78,1.46-8.66,2.69-14.63,3.66-4.27.67-7.38,1.95-9.33,3.84-1.95,1.89-2.93,4.15-2.93,6.77,0,2.87.99,5.04,2.97,6.54,1.98,1.5,4.53,2.24,7.64,2.24Z"/>
    <path class="cls-1" d="M671.41,226.82v26.7h-17.56v42.71c0,4.27,2.32,6.4,6.95,6.4,1.09,0,2.7-.14,4.8-.41,2.1-.28,3.49-.53,4.16-.78l4.39,26.25c-4.2,1.16-8.17,1.93-11.89,2.33-3.72.4-7.22.6-10.52.6-23.11,0-34.66-10.33-34.66-31v-46.09h-12.98v-26.7h12.98v-24.33h36.76v24.33h17.56Z"/>
    <path class="cls-11" d="M686.41,329.06v-102.24h36.76v102.24h-36.76ZM704.7,216.4c-5,0-9.27-1.65-12.8-4.94-3.54-3.29-5.3-7.25-5.3-11.89s1.77-8.67,5.3-11.93c3.53-3.26,7.8-4.89,12.8-4.89s9.27,1.63,12.8,4.89c3.54,3.26,5.31,7.24,5.31,11.93s-1.77,8.59-5.31,11.89c-3.53,3.29-7.8,4.94-12.8,4.94Z"/>
    <path class="cls-5" d="M769.99,329.06l-36.4-102.24h38.59l13.26,46.64c1.34,4.63,2.56,9.33,3.66,14.08,1.1,4.76,2.13,9.69,3.11,14.81.97-5.12,2-10.04,3.06-14.77,1.07-4.72,2.24-9.43,3.52-14.13l12.89-46.64h38.05l-36.58,102.24h-43.16Z"/>
    <path class="cls-6" d="M886.04,330.71c-9.82,0-17.82-2.44-24.01-7.31-6.19-4.88-9.28-12.38-9.28-22.5,0-7.5,1.66-13.53,4.99-18.11,3.32-4.57,7.82-8,13.49-10.29,5.67-2.28,12.01-3.67,19.02-4.16,8.54-.61,14.6-1.51,18.2-2.7,3.6-1.19,5.4-3.28,5.4-6.27v-.37c0-2.62-1.04-4.65-3.11-6.08-2.07-1.43-4.88-2.15-8.41-2.15s-6.45.75-8.92,2.24c-2.47,1.5-4.01,3.8-4.62,6.91l-33.11-3.29c.98-5.73,3.35-10.94,7.13-15.64,3.78-4.69,9.01-8.44,15.68-11.25,6.68-2.8,14.8-4.2,24.37-4.2s18.12,1.48,25.28,4.43c7.17,2.96,12.7,6.97,16.6,12.03,3.9,5.06,5.85,10.73,5.85,17.01v70.05h-34.39v-14.45h-.73c-3.11,5.73-7.13,9.85-12.07,12.35-4.94,2.5-10.73,3.75-17.37,3.75ZM897.93,307.48c4.14,0,7.89-1.28,11.25-3.84,3.35-2.56,5.03-6.16,5.03-10.79v-8.41c-3.78,1.46-8.66,2.69-14.63,3.66-4.27.67-7.38,1.95-9.33,3.84-1.95,1.89-2.93,4.15-2.93,6.77,0,2.87.99,5.04,2.97,6.54,1.98,1.5,4.53,2.24,7.64,2.24Z"/>
    <path class="cls-9" d="M1014.9,330.89c-13.9,0-25.3-2.9-34.2-8.69-8.9-5.79-14.23-13.72-16-23.78l34.02-4.94c1.22,4.02,3.2,7.12,5.94,9.28s6.71,3.25,11.89,3.25c7.62,0,11.43-2.13,11.43-6.4,0-3.6-3.9-6.09-11.7-7.5l-18.11-3.29c-20.73-3.72-31.09-13.72-31.09-30,0-10.67,4.2-18.88,12.62-24.65,8.42-5.76,19.94-8.64,34.57-8.64,13.53,0,24.48,2.6,32.83,7.82,8.35,5.21,13.32,12.45,14.91,21.72l-32.37,4.66c-.79-3.35-2.53-5.81-5.21-7.36-2.69-1.55-5.82-2.33-9.42-2.33-3.17,0-5.85.56-8.05,1.69-2.2,1.13-3.29,2.76-3.29,4.89,0,1.52.65,2.96,1.96,4.3,1.31,1.34,3.89,2.35,7.73,3.02l20.85,3.66c20.73,3.66,31.09,12.86,31.09,27.62,0,7.32-2.18,13.64-6.54,18.98-4.36,5.34-10.32,9.45-17.88,12.35-7.56,2.89-16.22,4.34-25.97,4.34Z"/>
  </g>
</svg>